<mxfile host="app.diagrams.net" modified="2024-06-27T06:18:46.398Z" agent="Mozilla/5.0 (Windows NT 10.0; Win64; x64) AppleWebKit/537.36 (KHTML, like Gecko) Chrome/126.0.0.0 Safari/537.36" etag="UGWM69ICfENktNE705_7" version="24.6.2" type="device">
  <diagram name="Page-1" id="4kpvasG-hDAIgJTeGMHD">
    <mxGraphModel dx="1664" dy="1579" grid="1" gridSize="10" guides="1" tooltips="1" connect="1" arrows="1" fold="1" page="1" pageScale="1" pageWidth="850" pageHeight="1100" math="0" shadow="0">
      <root>
        <mxCell id="0" />
        <mxCell id="1" parent="0" />
        <mxCell id="bcy3Wl-tqxTMZa11CifP-24" style="edgeStyle=orthogonalEdgeStyle;rounded=0;orthogonalLoop=1;jettySize=auto;html=1;entryX=0.5;entryY=1;entryDx=0;entryDy=0;dashed=1;" edge="1" parent="1" source="bcy3Wl-tqxTMZa11CifP-1" target="bcy3Wl-tqxTMZa11CifP-23">
          <mxGeometry relative="1" as="geometry" />
        </mxCell>
        <mxCell id="bcy3Wl-tqxTMZa11CifP-1" value="Container" style="rounded=1;whiteSpace=wrap;html=1;fillColor=#d5e8d4;strokeColor=#82b366;" vertex="1" parent="1">
          <mxGeometry x="225" y="280" width="120" height="60" as="geometry" />
        </mxCell>
        <mxCell id="bcy3Wl-tqxTMZa11CifP-34" style="edgeStyle=orthogonalEdgeStyle;rounded=0;orthogonalLoop=1;jettySize=auto;html=1;entryX=0.5;entryY=0;entryDx=0;entryDy=0;" edge="1" parent="1" source="bcy3Wl-tqxTMZa11CifP-2" target="bcy3Wl-tqxTMZa11CifP-33">
          <mxGeometry relative="1" as="geometry" />
        </mxCell>
        <mxCell id="bcy3Wl-tqxTMZa11CifP-2" value="Messanger" style="rounded=1;whiteSpace=wrap;html=1;fillColor=#d5e8d4;strokeColor=#82b366;" vertex="1" parent="1">
          <mxGeometry x="-110" y="630" width="120" height="60" as="geometry" />
        </mxCell>
        <mxCell id="bcy3Wl-tqxTMZa11CifP-22" style="edgeStyle=orthogonalEdgeStyle;rounded=0;orthogonalLoop=1;jettySize=auto;html=1;entryX=0.5;entryY=0;entryDx=0;entryDy=0;dashed=1;" edge="1" parent="1" source="bcy3Wl-tqxTMZa11CifP-3" target="bcy3Wl-tqxTMZa11CifP-21">
          <mxGeometry relative="1" as="geometry" />
        </mxCell>
        <mxCell id="bcy3Wl-tqxTMZa11CifP-3" value="Receiver" style="rounded=1;whiteSpace=wrap;html=1;fillColor=#d5e8d4;strokeColor=#82b366;" vertex="1" parent="1">
          <mxGeometry x="520" y="640" width="120" height="60" as="geometry" />
        </mxCell>
        <mxCell id="bcy3Wl-tqxTMZa11CifP-7" style="rounded=0;orthogonalLoop=1;jettySize=auto;html=1;exitX=0.8;exitY=0.8;exitDx=0;exitDy=0;exitPerimeter=0;entryX=0.5;entryY=0;entryDx=0;entryDy=0;dashed=1;" edge="1" parent="1" source="bcy3Wl-tqxTMZa11CifP-4" target="bcy3Wl-tqxTMZa11CifP-3">
          <mxGeometry relative="1" as="geometry" />
        </mxCell>
        <mxCell id="bcy3Wl-tqxTMZa11CifP-8" style="rounded=0;orthogonalLoop=1;jettySize=auto;html=1;exitX=0.5;exitY=0.107;exitDx=0;exitDy=0;exitPerimeter=0;entryX=0.5;entryY=1;entryDx=0;entryDy=0;dashed=1;" edge="1" parent="1" source="bcy3Wl-tqxTMZa11CifP-4" target="bcy3Wl-tqxTMZa11CifP-1">
          <mxGeometry relative="1" as="geometry" />
        </mxCell>
        <mxCell id="bcy3Wl-tqxTMZa11CifP-4" value="DOM EVENTS&lt;br&gt;microfrontend:message:send" style="ellipse;shape=cloud;whiteSpace=wrap;html=1;fillColor=#e1d5e7;strokeColor=#9673a6;" vertex="1" parent="1">
          <mxGeometry x="150" y="430" width="270" height="140" as="geometry" />
        </mxCell>
        <mxCell id="bcy3Wl-tqxTMZa11CifP-5" style="rounded=0;orthogonalLoop=1;jettySize=auto;html=1;exitX=1;exitY=0;exitDx=0;exitDy=0;entryX=0.31;entryY=0.8;entryDx=0;entryDy=0;entryPerimeter=0;dashed=1;" edge="1" parent="1" source="bcy3Wl-tqxTMZa11CifP-2" target="bcy3Wl-tqxTMZa11CifP-4">
          <mxGeometry relative="1" as="geometry" />
        </mxCell>
        <mxCell id="bcy3Wl-tqxTMZa11CifP-6" value="Publish" style="text;html=1;align=center;verticalAlign=middle;resizable=0;points=[];autosize=1;strokeColor=none;fillColor=none;" vertex="1" parent="1">
          <mxGeometry x="115" y="600" width="60" height="30" as="geometry" />
        </mxCell>
        <mxCell id="bcy3Wl-tqxTMZa11CifP-9" value="Subscribe" style="text;html=1;align=center;verticalAlign=middle;resizable=0;points=[];autosize=1;strokeColor=none;fillColor=none;" vertex="1" parent="1">
          <mxGeometry x="280" y="380" width="80" height="30" as="geometry" />
        </mxCell>
        <mxCell id="bcy3Wl-tqxTMZa11CifP-10" value="Subscribe" style="text;html=1;align=center;verticalAlign=middle;resizable=0;points=[];autosize=1;strokeColor=none;fillColor=none;" vertex="1" parent="1">
          <mxGeometry x="410" y="540" width="80" height="30" as="geometry" />
        </mxCell>
        <mxCell id="bcy3Wl-tqxTMZa11CifP-13" style="edgeStyle=orthogonalEdgeStyle;rounded=0;orthogonalLoop=1;jettySize=auto;html=1;entryX=0.5;entryY=1;entryDx=0;entryDy=0;" edge="1" parent="1" source="bcy3Wl-tqxTMZa11CifP-11">
          <mxGeometry relative="1" as="geometry">
            <mxPoint x="-50" y="800" as="targetPoint" />
          </mxGeometry>
        </mxCell>
        <mxCell id="bcy3Wl-tqxTMZa11CifP-11" value="Actor" style="shape=umlActor;verticalLabelPosition=bottom;verticalAlign=top;html=1;outlineConnect=0;" vertex="1" parent="1">
          <mxGeometry x="-65" y="840" width="30" height="60" as="geometry" />
        </mxCell>
        <mxCell id="bcy3Wl-tqxTMZa11CifP-14" style="edgeStyle=orthogonalEdgeStyle;rounded=0;orthogonalLoop=1;jettySize=auto;html=1;entryX=0.5;entryY=1;entryDx=0;entryDy=0;" edge="1" parent="1" target="bcy3Wl-tqxTMZa11CifP-2">
          <mxGeometry relative="1" as="geometry">
            <mxPoint x="-50" y="740" as="sourcePoint" />
          </mxGeometry>
        </mxCell>
        <mxCell id="bcy3Wl-tqxTMZa11CifP-12" value="Enters message&lt;br&gt;and&lt;br&gt;Clicks Send" style="shape=parallelogram;perimeter=parallelogramPerimeter;whiteSpace=wrap;html=1;fixedSize=1;fillColor=#ffe6cc;strokeColor=#d79b00;" vertex="1" parent="1">
          <mxGeometry x="-130" y="740" width="160" height="60" as="geometry" />
        </mxCell>
        <mxCell id="bcy3Wl-tqxTMZa11CifP-15" value="1" style="text;html=1;align=center;verticalAlign=middle;resizable=0;points=[];autosize=1;strokeColor=none;fillColor=none;" vertex="1" parent="1">
          <mxGeometry x="-55" y="808" width="30" height="30" as="geometry" />
        </mxCell>
        <mxCell id="bcy3Wl-tqxTMZa11CifP-17" value="3" style="text;html=1;align=center;verticalAlign=middle;resizable=0;points=[];autosize=1;strokeColor=none;fillColor=none;" vertex="1" parent="1">
          <mxGeometry x="130" y="590" width="30" height="30" as="geometry" />
        </mxCell>
        <mxCell id="bcy3Wl-tqxTMZa11CifP-18" value="4" style="text;html=1;align=center;verticalAlign=middle;resizable=0;points=[];autosize=1;strokeColor=none;fillColor=none;" vertex="1" parent="1">
          <mxGeometry x="305" y="370" width="30" height="30" as="geometry" />
        </mxCell>
        <mxCell id="bcy3Wl-tqxTMZa11CifP-19" value="4" style="text;html=1;align=center;verticalAlign=middle;resizable=0;points=[];autosize=1;strokeColor=none;fillColor=none;" vertex="1" parent="1">
          <mxGeometry x="435" y="530" width="30" height="30" as="geometry" />
        </mxCell>
        <mxCell id="bcy3Wl-tqxTMZa11CifP-28" style="edgeStyle=orthogonalEdgeStyle;rounded=0;orthogonalLoop=1;jettySize=auto;html=1;entryX=1;entryY=0.5;entryDx=0;entryDy=0;exitX=0.5;exitY=1;exitDx=0;exitDy=0;startArrow=classic;startFill=1;" edge="1" parent="1" source="bcy3Wl-tqxTMZa11CifP-21" target="bcy3Wl-tqxTMZa11CifP-26">
          <mxGeometry relative="1" as="geometry" />
        </mxCell>
        <mxCell id="bcy3Wl-tqxTMZa11CifP-21" value="Calls API to fetch all Messages" style="whiteSpace=wrap;html=1;aspect=fixed;fillColor=#dae8fc;strokeColor=#6c8ebf;" vertex="1" parent="1">
          <mxGeometry x="385" y="740" width="80" height="80" as="geometry" />
        </mxCell>
        <mxCell id="bcy3Wl-tqxTMZa11CifP-23" value="Increments Counter State" style="whiteSpace=wrap;html=1;aspect=fixed;fillColor=#dae8fc;strokeColor=#6c8ebf;" vertex="1" parent="1">
          <mxGeometry x="245" y="140" width="80" height="80" as="geometry" />
        </mxCell>
        <mxCell id="bcy3Wl-tqxTMZa11CifP-25" value="Note:&lt;div&gt;&lt;b&gt;1.&lt;/b&gt; User enters a message and clicks send&lt;/div&gt;&lt;div&gt;&lt;b&gt;2.&lt;/b&gt; Messenger makes a POST request to the API to save the message&lt;/div&gt;&lt;div&gt;&lt;b&gt;3.&lt;/b&gt; Messenger publishes an event&lt;/div&gt;&lt;div&gt;&lt;b&gt;4.&lt;/b&gt; Other micro-frontend subscribes and reacts to events&lt;/div&gt;&lt;div&gt;&lt;b&gt;5.&lt;/b&gt; Receiver react to event and makes API call to retrieve messages&lt;/div&gt;&lt;div&gt;&lt;b&gt;5.&lt;/b&gt; Container reacts to event and increments counter by one&lt;/div&gt;" style="text;html=1;align=center;verticalAlign=middle;resizable=0;points=[];autosize=1;strokeColor=none;fillColor=none;" vertex="1" parent="1">
          <mxGeometry x="-215" y="340" width="390" height="110" as="geometry" />
        </mxCell>
        <mxCell id="bcy3Wl-tqxTMZa11CifP-26" value="API" style="rounded=1;whiteSpace=wrap;html=1;fillColor=#d5e8d4;strokeColor=#82b366;" vertex="1" parent="1">
          <mxGeometry x="240" y="880" width="120" height="60" as="geometry" />
        </mxCell>
        <mxCell id="bcy3Wl-tqxTMZa11CifP-30" value="Requests all messages" style="text;html=1;align=center;verticalAlign=middle;resizable=0;points=[];autosize=1;strokeColor=none;fillColor=none;" vertex="1" parent="1">
          <mxGeometry x="425" y="820" width="150" height="30" as="geometry" />
        </mxCell>
        <mxCell id="bcy3Wl-tqxTMZa11CifP-32" value="Returns all messages" style="text;html=1;align=center;verticalAlign=middle;resizable=0;points=[];autosize=1;strokeColor=none;fillColor=none;" vertex="1" parent="1">
          <mxGeometry x="360" y="910" width="140" height="30" as="geometry" />
        </mxCell>
        <mxCell id="bcy3Wl-tqxTMZa11CifP-35" style="edgeStyle=orthogonalEdgeStyle;rounded=0;orthogonalLoop=1;jettySize=auto;html=1;entryX=0;entryY=0.5;entryDx=0;entryDy=0;exitX=0.5;exitY=1;exitDx=0;exitDy=0;startArrow=classic;startFill=1;" edge="1" parent="1" source="bcy3Wl-tqxTMZa11CifP-33" target="bcy3Wl-tqxTMZa11CifP-26">
          <mxGeometry relative="1" as="geometry" />
        </mxCell>
        <mxCell id="bcy3Wl-tqxTMZa11CifP-33" value="Posts to api to save message" style="whiteSpace=wrap;html=1;aspect=fixed;fillColor=#dae8fc;strokeColor=#6c8ebf;" vertex="1" parent="1">
          <mxGeometry x="110" y="740" width="80" height="80" as="geometry" />
        </mxCell>
        <mxCell id="bcy3Wl-tqxTMZa11CifP-36" value="2" style="text;html=1;align=center;verticalAlign=middle;resizable=0;points=[];autosize=1;strokeColor=none;fillColor=none;" vertex="1" parent="1">
          <mxGeometry x="60" y="660" width="30" height="30" as="geometry" />
        </mxCell>
        <mxCell id="bcy3Wl-tqxTMZa11CifP-37" value="Sends user&#39;s message" style="text;html=1;align=center;verticalAlign=middle;resizable=0;points=[];autosize=1;strokeColor=none;fillColor=none;" vertex="1" parent="1">
          <mxGeometry x="10" y="820" width="140" height="30" as="geometry" />
        </mxCell>
        <mxCell id="bcy3Wl-tqxTMZa11CifP-38" value="Returns a response" style="text;html=1;align=center;verticalAlign=middle;resizable=0;points=[];autosize=1;strokeColor=none;fillColor=none;" vertex="1" parent="1">
          <mxGeometry x="110" y="910" width="130" height="30" as="geometry" />
        </mxCell>
        <mxCell id="bcy3Wl-tqxTMZa11CifP-39" value="5" style="text;html=1;align=center;verticalAlign=middle;resizable=0;points=[];autosize=1;strokeColor=none;fillColor=none;" vertex="1" parent="1">
          <mxGeometry x="480" y="640" width="30" height="30" as="geometry" />
        </mxCell>
        <mxCell id="bcy3Wl-tqxTMZa11CifP-40" value="5" style="text;html=1;align=center;verticalAlign=middle;resizable=0;points=[];autosize=1;strokeColor=none;fillColor=none;" vertex="1" parent="1">
          <mxGeometry x="260" y="235" width="30" height="30" as="geometry" />
        </mxCell>
      </root>
    </mxGraphModel>
  </diagram>
</mxfile>
